<svg width="160" height="80" viewBox="0 0 160 80" fill="none" xmlns="http://www.w3.org/2000/svg">
<g filter="url(#filter0_i_5_523)">
<path d="M18.7678 22.6363V59H11.0795V29.9339H10.8665L2.53906 35.1541V28.3359L11.5412 22.6363H18.7678Z" fill="url(#paint0_linear_5_523)"/>
<path d="M40.9757 59.4971C38.2413 59.4971 35.8088 59.0532 33.6781 58.1654C31.5592 57.2658 29.8961 56.0407 28.6887 54.49C27.4814 52.9394 26.8777 51.1815 26.8777 49.2166C26.8777 47.7014 27.2209 46.3106 27.9075 45.044C28.6059 43.7656 29.5529 42.7062 30.7484 41.8657C31.944 41.0135 33.2815 40.4689 34.7612 40.2322V39.9836C32.8199 39.593 31.2456 38.6519 30.0382 37.1605C28.8308 35.6572 28.2271 33.9112 28.2271 31.9225C28.2271 30.0404 28.7775 28.3655 29.8784 26.8977C30.9792 25.418 32.4885 24.258 34.4061 23.4176C36.3355 22.5653 38.5254 22.1392 40.9757 22.1392C43.426 22.1392 45.6099 22.5653 47.5275 23.4176C49.457 24.2698 50.9721 25.4358 52.073 26.9154C53.1738 28.3832 53.7302 30.0523 53.742 31.9225C53.7302 33.923 53.1146 35.669 51.8954 37.1605C50.6762 38.6519 49.1137 39.593 47.2079 39.9836V40.2322C48.6639 40.4689 49.9837 41.0135 51.1674 41.8657C52.363 42.7062 53.31 43.7656 54.0083 45.044C54.7186 46.3106 55.0796 47.7014 55.0914 49.2166C55.0796 51.1815 54.47 52.9394 53.2626 54.49C52.0552 56.0407 50.3862 57.2658 48.2555 58.1654C46.1367 59.0532 43.71 59.4971 40.9757 59.4971ZM40.9757 53.8508C42.1949 53.8508 43.2602 53.6318 44.1717 53.1938C45.0832 52.744 45.7934 52.1285 46.3024 51.3473C46.8232 50.5542 47.0836 49.6427 47.0836 48.6129C47.0836 47.5594 46.8173 46.6302 46.2846 45.8252C45.752 45.0085 45.0299 44.3693 44.1184 43.9076C43.207 43.4341 42.1594 43.1974 40.9757 43.1974C39.8038 43.1974 38.7562 43.4341 37.8329 43.9076C36.9096 44.3693 36.1816 45.0085 35.649 45.8252C35.1281 46.6302 34.8677 47.5594 34.8677 48.6129C34.8677 49.6427 35.1222 50.5542 35.6312 51.3473C36.1402 52.1285 36.8564 52.744 37.7797 53.1938C38.7029 53.6318 39.7683 53.8508 40.9757 53.8508ZM40.9757 37.6044C41.9937 37.6044 42.8992 37.3972 43.6923 36.9829C44.4854 36.5686 45.1068 35.9945 45.5566 35.2606C46.0065 34.5267 46.2314 33.6804 46.2314 32.7215C46.2314 31.7746 46.0065 30.946 45.5566 30.2358C45.1068 29.5137 44.4913 28.9514 43.71 28.549C42.9288 28.1347 42.0173 27.9275 40.9757 27.9275C39.9458 27.9275 39.0344 28.1347 38.2413 28.549C37.4482 28.9514 36.8268 29.5137 36.377 30.2358C35.939 30.946 35.72 31.7746 35.72 32.7215C35.72 33.6804 35.9449 34.5267 36.3947 35.2606C36.8445 35.9945 37.466 36.5686 38.2591 36.9829C39.0521 37.3972 39.9577 37.6044 40.9757 37.6044Z" fill="url(#paint1_linear_5_523)"/>
<path d="M74.7248 59.799C71.6708 59.7871 69.043 59.0355 66.8413 57.544C64.6514 56.0525 62.9646 53.8922 61.7809 51.0632C60.609 48.2341 60.029 44.8309 60.0408 40.8536C60.0408 36.8882 60.6268 33.5087 61.7987 30.7152C62.9824 27.9216 64.6692 25.7968 66.859 24.3409C69.0607 22.8731 71.6826 22.1392 74.7248 22.1392C77.7669 22.1392 80.3829 22.8731 82.5728 24.3409C84.7745 25.8087 86.4672 27.9393 87.6509 30.7329C88.8346 33.5146 89.4206 36.8882 89.4087 40.8536C89.4087 44.8428 88.8169 48.2519 87.6332 51.0809C86.4613 53.91 84.7804 56.0703 82.5906 57.5617C80.4007 59.0532 77.7788 59.799 74.7248 59.799ZM74.7248 53.4247C76.8081 53.4247 78.4712 52.3771 79.7141 50.2819C80.957 48.1867 81.5726 45.044 81.5607 40.8536C81.5607 38.0956 81.2766 35.7992 80.7085 33.9644C80.1521 32.1297 79.359 30.7507 78.3292 29.8274C77.3112 28.9041 76.1097 28.4424 74.7248 28.4424C72.6533 28.4424 70.9961 29.4782 69.7532 31.5497C68.5103 33.6212 67.8829 36.7225 67.8711 40.8536C67.8711 43.6472 68.1493 45.9791 68.7056 47.8494C69.2738 49.7078 70.0728 51.1046 71.1026 52.0397C72.1325 52.963 73.3398 53.4247 74.7248 53.4247Z" fill="url(#paint2_linear_5_523)"/>
<path d="M105.757 53.4602V28.3181H112.114V53.4602H105.757ZM96.3645 44.0674V37.7109H121.507V44.0674H96.3645Z" fill="url(#paint3_linear_5_523)"/>
</g>
<defs>
<filter id="filter0_i_5_523" x="2.53906" y="22.1392" width="118.968" height="38.6598" filterUnits="userSpaceOnUse" color-interpolation-filters="sRGB">
<feFlood flood-opacity="0" result="BackgroundImageFix"/>
<feBlend mode="normal" in="SourceGraphic" in2="BackgroundImageFix" result="shape"/>
<feColorMatrix in="SourceAlpha" type="matrix" values="0 0 0 0 0 0 0 0 0 0 0 0 0 0 0 0 0 0 127 0" result="hardAlpha"/>
<feOffset dy="1"/>
<feGaussianBlur stdDeviation="2"/>
<feComposite in2="hardAlpha" operator="arithmetic" k2="-1" k3="1"/>
<feColorMatrix type="matrix" values="0 0 0 0 1 0 0 0 0 1 0 0 0 0 1 0 0 0 0.25 0"/>
<feBlend mode="normal" in2="shape" result="effect1_innerShadow_5_523"/>
</filter>
<linearGradient id="paint0_linear_5_523" x1="-8.52659e-08" y1="11" x2="104.847" y2="11" gradientUnits="userSpaceOnUse">
<stop stop-color="#FF4DAD"/>
<stop offset="0.447917" stop-color="#DA48FF"/>
<stop offset="1" stop-color="#828EFF"/>
</linearGradient>
<linearGradient id="paint1_linear_5_523" x1="-8.52659e-08" y1="11" x2="104.847" y2="11" gradientUnits="userSpaceOnUse">
<stop stop-color="#FF4DAD"/>
<stop offset="0.447917" stop-color="#DA48FF"/>
<stop offset="1" stop-color="#828EFF"/>
</linearGradient>
<linearGradient id="paint2_linear_5_523" x1="-8.52659e-08" y1="11" x2="104.847" y2="11" gradientUnits="userSpaceOnUse">
<stop stop-color="#FF4DAD"/>
<stop offset="0.447917" stop-color="#DA48FF"/>
<stop offset="1" stop-color="#828EFF"/>
</linearGradient>
<linearGradient id="paint3_linear_5_523" x1="-8.52659e-08" y1="11" x2="104.847" y2="11" gradientUnits="userSpaceOnUse">
<stop stop-color="#FF4DAD"/>
<stop offset="0.447917" stop-color="#DA48FF"/>
<stop offset="1" stop-color="#828EFF"/>
</linearGradient>
</defs>
</svg>
