<svg width="161" height="80" viewBox="0 0 161 80" fill="none" xmlns="http://www.w3.org/2000/svg">
<g filter="url(#filter0_i_5_527)">
<path fill-rule="evenodd" clip-rule="evenodd" d="M21.2217 29.2769C17.7645 29.2769 14.5156 30.4898 12.1755 32.5506C9.84793 34.6003 8.62906 37.2906 8.62906 40C8.62906 42.7094 9.84793 45.3997 12.1755 47.4494C14.5156 49.5102 17.7645 50.7231 21.2217 50.7231C25.1166 50.7231 28.6382 49.3083 32.1433 46.9339C34.9316 45.0451 37.5838 42.64 40.3257 40C37.5838 37.36 34.9316 34.9549 32.1433 33.0661C28.6382 30.6917 25.1166 29.2769 21.2217 29.2769ZM44.8328 35.612C41.9741 32.8537 38.9439 30.0839 35.6819 27.8743C31.5135 25.0506 26.7712 23 21.2217 23C16.3294 23 11.5709 24.7079 8.00708 27.8462C4.43068 30.9957 2.33276 35.3568 2.33276 40C2.33276 44.6432 4.43068 49.0043 8.00708 52.1538C11.5709 55.2921 16.3294 57 21.2217 57C26.7712 57 31.5135 54.9494 35.6819 52.1257C38.9439 49.9161 41.9741 47.1463 44.8328 44.388C47.6914 47.1463 50.7217 49.9161 53.9836 52.1257C58.1521 54.9494 62.8943 57 68.4439 57C73.3361 57 78.0947 55.2921 81.6584 52.1538C85.2348 49.0043 87.3328 44.6432 87.3328 40C87.3328 35.3568 85.2348 30.9957 81.6584 27.8462C78.0947 24.7079 73.3361 23 68.4439 23C62.8943 23 58.1521 25.0506 53.9836 27.8743C50.7217 30.0839 47.6914 32.8537 44.8328 35.612ZM49.3399 40C52.0817 42.64 54.7339 45.0451 57.5222 46.9339C61.0274 49.3083 64.549 50.7231 68.4439 50.7231C71.901 50.7231 75.1499 49.5102 77.4901 47.4494C79.8176 45.3997 81.0365 42.7094 81.0365 40C81.0365 37.2906 79.8176 34.6003 77.4901 32.5506C75.1499 30.4898 71.901 29.2769 68.4439 29.2769C64.549 29.2769 61.0274 30.6917 57.5222 33.0661C54.7339 34.9549 52.0817 37.36 49.3399 40Z" fill="url(#paint0_linear_5_527)"/>
</g>
<defs>
<filter id="filter0_i_5_527" x="2.33276" y="23" width="85" height="35" filterUnits="userSpaceOnUse" color-interpolation-filters="sRGB">
<feFlood flood-opacity="0" result="BackgroundImageFix"/>
<feBlend mode="normal" in="SourceGraphic" in2="BackgroundImageFix" result="shape"/>
<feColorMatrix in="SourceAlpha" type="matrix" values="0 0 0 0 0 0 0 0 0 0 0 0 0 0 0 0 0 0 127 0" result="hardAlpha"/>
<feOffset dy="1"/>
<feGaussianBlur stdDeviation="2"/>
<feComposite in2="hardAlpha" operator="arithmetic" k2="-1" k3="1"/>
<feColorMatrix type="matrix" values="0 0 0 0 1 0 0 0 0 1 0 0 0 0 1 0 0 0 0.25 0"/>
<feBlend mode="normal" in2="shape" result="effect1_innerShadow_5_527"/>
</filter>
<linearGradient id="paint0_linear_5_527" x1="2.33276" y1="23" x2="73.0631" y2="23" gradientUnits="userSpaceOnUse">
<stop stop-color="#FF4DAD"/>
<stop offset="0.447917" stop-color="#DA48FF"/>
<stop offset="1" stop-color="#828EFF"/>
</linearGradient>
</defs>
</svg>
