<svg width="161" height="80" viewBox="0 0 161 80" fill="none" xmlns="http://www.w3.org/2000/svg">
<g filter="url(#filter0_i_5_531)">
<path d="M3.82788 59V22.6364H18.1745C20.9325 22.6364 23.2822 23.1631 25.2235 24.2166C27.1648 25.2583 28.6444 26.7083 29.6624 28.5667C30.6922 30.4133 31.2071 32.544 31.2071 34.9588C31.2071 37.3736 30.6863 39.5043 29.6446 41.3508C28.603 43.1974 27.0937 44.6356 25.1169 45.6655C23.152 46.6953 20.7727 47.2102 17.9792 47.2102H8.83498V41.049H16.7363C18.2159 41.049 19.4351 40.7945 20.3939 40.2855C21.3646 39.7647 22.0866 39.0485 22.5601 38.1371C23.0454 37.2138 23.2881 36.1543 23.2881 34.9588C23.2881 33.7514 23.0454 32.6979 22.5601 31.7983C22.0866 30.8868 21.3646 30.1825 20.3939 29.6854C19.4233 29.1764 18.1922 28.9219 16.7008 28.9219H11.5161V59H3.82788Z" fill="url(#paint0_linear_5_531)"/>
<path d="M36.0589 59V31.7273H43.392V36.4858H43.6761C44.1732 34.7931 45.0077 33.5147 46.1796 32.6506C47.3515 31.7746 48.7009 31.3366 50.2279 31.3366C50.6067 31.3366 51.0151 31.3603 51.4531 31.4077C51.891 31.455 52.2757 31.5201 52.6072 31.603V38.3146C52.2521 38.2081 51.7608 38.1134 51.1335 38.0305C50.5061 37.9477 49.932 37.9062 49.4112 37.9062C48.2985 37.9062 47.3041 38.1489 46.4282 38.6342C45.5641 39.1077 44.8775 39.7706 44.3685 40.6229C43.8714 41.4751 43.6228 42.4576 43.6228 43.5703V59H36.0589Z" fill="url(#paint1_linear_5_531)"/>
<path d="M67.5708 59.5327C64.8127 59.5327 62.4275 58.9467 60.4152 57.7748C58.4148 56.5911 56.87 54.9458 55.781 52.8388C54.692 50.7199 54.1475 48.2637 54.1475 45.4702C54.1475 42.6529 54.692 40.1908 55.781 38.0838C56.87 35.965 58.4148 34.3196 60.4152 33.1477C62.4275 31.964 64.8127 31.3721 67.5708 31.3721C70.3288 31.3721 72.7081 31.964 74.7086 33.1477C76.7209 34.3196 78.2715 35.965 79.3605 38.0838C80.4496 40.1908 80.9941 42.6529 80.9941 45.4702C80.9941 48.2637 80.4496 50.7199 79.3605 52.8388C78.2715 54.9458 76.7209 56.5911 74.7086 57.7748C72.7081 58.9467 70.3288 59.5327 67.5708 59.5327ZM67.6063 53.6733C68.861 53.6733 69.9086 53.3182 70.749 52.6079C71.5895 51.8859 72.2228 50.9034 72.6489 49.6605C73.0869 48.4176 73.3059 47.0031 73.3059 45.4169C73.3059 43.8307 73.0869 42.4162 72.6489 41.1733C72.2228 39.9304 71.5895 38.9479 70.749 38.2258C69.9086 37.5038 68.861 37.1427 67.6063 37.1427C66.3397 37.1427 65.2744 37.5038 64.4103 38.2258C63.558 38.9479 62.9129 39.9304 62.4749 41.1733C62.0488 42.4162 61.8357 43.8307 61.8357 45.4169C61.8357 47.0031 62.0488 48.4176 62.4749 49.6605C62.9129 50.9034 63.558 51.8859 64.4103 52.6079C65.2744 53.3182 66.3397 53.6733 67.6063 53.6733Z" fill="url(#paint2_linear_5_531)"/>
</g>
<defs>
<filter id="filter0_i_5_531" x="3.82788" y="22.6364" width="77.1663" height="37.8964" filterUnits="userSpaceOnUse" color-interpolation-filters="sRGB">
<feFlood flood-opacity="0" result="BackgroundImageFix"/>
<feBlend mode="normal" in="SourceGraphic" in2="BackgroundImageFix" result="shape"/>
<feColorMatrix in="SourceAlpha" type="matrix" values="0 0 0 0 0 0 0 0 0 0 0 0 0 0 0 0 0 0 127 0" result="hardAlpha"/>
<feOffset dy="1"/>
<feGaussianBlur stdDeviation="2"/>
<feComposite in2="hardAlpha" operator="arithmetic" k2="-1" k3="1"/>
<feColorMatrix type="matrix" values="0 0 0 0 1 0 0 0 0 1 0 0 0 0 1 0 0 0 0.25 0"/>
<feBlend mode="normal" in2="shape" result="effect1_innerShadow_5_531"/>
</filter>
<linearGradient id="paint0_linear_5_531" x1="0.667725" y1="11" x2="69.7338" y2="11" gradientUnits="userSpaceOnUse">
<stop stop-color="#FF4DAD"/>
<stop offset="0.447917" stop-color="#DA48FF"/>
<stop offset="1" stop-color="#828EFF"/>
</linearGradient>
<linearGradient id="paint1_linear_5_531" x1="0.667725" y1="11" x2="69.7338" y2="11" gradientUnits="userSpaceOnUse">
<stop stop-color="#FF4DAD"/>
<stop offset="0.447917" stop-color="#DA48FF"/>
<stop offset="1" stop-color="#828EFF"/>
</linearGradient>
<linearGradient id="paint2_linear_5_531" x1="0.667725" y1="11" x2="69.7338" y2="11" gradientUnits="userSpaceOnUse">
<stop stop-color="#FF4DAD"/>
<stop offset="0.447917" stop-color="#DA48FF"/>
<stop offset="1" stop-color="#828EFF"/>
</linearGradient>
</defs>
</svg>
