<svg width="1828" height="890" viewBox="0 0 1828 890" fill="none" xmlns="http://www.w3.org/2000/svg">
<g opacity="0.4" filter="url(#filter0_f_5_516)">
<path d="M194.354 403.939C127.028 485.817 137.722 584.922 219.961 641.251L300.47 696.394C399.07 763.929 561.907 749.9 666.513 664.858L757.321 591.034C817.925 541.765 901.454 514.302 982.609 516.962L1364.31 529.476C1463.33 532.723 1563.93 490.087 1621 420.691L1637.62 400.471C1708.17 314.677 1682.17 210.675 1579.54 168.176V168.176C1514.7 141.322 1431.3 144.672 1359.51 177.015L977.236 349.226C906.368 381.152 825.028 388.969 755.282 370.557L511.28 306.142C399.649 276.672 264.78 318.29 194.354 403.939V403.939Z" fill="url(#paint0_linear_5_516)"/>
</g>
<defs>
<filter id="filter0_f_5_516" x="0.145599" y="0.0612488" width="1827.27" height="889.153" filterUnits="userSpaceOnUse" color-interpolation-filters="sRGB">
<feFlood flood-opacity="0" result="BackgroundImageFix"/>
<feBlend mode="normal" in="SourceGraphic" in2="BackgroundImageFix" result="shape"/>
<feGaussianBlur stdDeviation="75.05" result="effect1_foregroundBlur_5_516"/>
</filter>
<linearGradient id="paint0_linear_5_516" x1="12.4148" y1="625.202" x2="871.785" y2="1331.84" gradientUnits="userSpaceOnUse">
<stop stop-color="#0029FF"/>
<stop offset="1" stop-color="#FF008A"/>
</linearGradient>
</defs>
</svg>
