<svg width="1875" height="893" viewBox="0 0 1875 893" fill="none" xmlns="http://www.w3.org/2000/svg">
<g opacity="0.4" filter="url(#filter0_f_5_516)">
<path d="M196.613 404.68C127.22 486.541 137.469 585.246 221.135 640.832L311.587 700.928C410.273 766.494 573.707 752.102 679.709 668.51L777.991 591.007C839.794 542.27 924.519 515.067 1006.4 517.671L1404.05 530.317C1505.23 533.534 1608.68 490.674 1667.65 421.109L1682.33 403.799C1756.24 316.607 1730.17 211.384 1624.11 168.777V168.777C1557.5 142.02 1471.6 145.545 1397.12 178.091L1001.2 351.1C929.663 382.36 848.057 390.103 778.327 372.247L520.57 306.242C407.106 277.187 269.156 319.105 196.613 404.68V404.68Z" fill="url(#paint0_linear_5_516)"/>
</g>
<defs>
<filter id="filter0_f_5_516" x="0.637543" y="0.835175" width="1873.84" height="891.29" filterUnits="userSpaceOnUse" color-interpolation-filters="sRGB">
<feFlood flood-opacity="0" result="BackgroundImageFix"/>
<feBlend mode="normal" in="SourceGraphic" in2="BackgroundImageFix" result="shape"/>
<feGaussianBlur stdDeviation="75.05" result="effect1_foregroundBlur_5_516"/>
</filter>
<linearGradient id="paint0_linear_5_516" x1="9" y1="626" x2="873.056" y2="1358.46" gradientUnits="userSpaceOnUse">
<stop stop-color="#0029FF"/>
<stop offset="1" stop-color="#FF008A"/>
</linearGradient>
</defs>
</svg>
